<svg clip-rule="evenodd" fill-rule="evenodd" stroke-linejoin="round" stroke-miterlimit="2" viewBox="0 0 122 42" xmlns="http://www.w3.org/2000/svg"><g fill="#fff" fill-rule="nonzero"><path d="m230.09 22.923c.6.17 1.066.3 1.066.628s-.306.508-.833.508c-.524.04-1.012-.279-1.186-.775v-.054l-1.476.829v.027c.498 1.004 1.561 1.609 2.678 1.523 1.162 0 2.55-.535 2.55-2.038 0-1.445-1.263-1.79-2.185-2.046-.585-.159-1.05-.287-1.05-.612s.275-.484.7-.484c.415-.012.797.231.961.612v.047l1.418-.775h.027l-.019-.031c-.493-.864-1.428-1.385-2.422-1.352-.092-.012-.185-.018-.278-.018-1.136 0-2.085.903-2.141 2.038 0 1.376 1.255 1.732 2.17 1.992" transform="translate(-139.444881 -11.608)"/><path d="m245.26 19.27-1.74.678.043 5.646v.043h1.7z" transform="translate(-149.159881 -11.819)"/><path d="m244.239 14.34c.556.005 1.02-.444 1.035-1-.002-.28-.117-.549-.318-.744-.189-.182-.441-.284-.704-.284-.556 0-1.014.458-1.014 1.014s.458 1.014 1.014 1.014h.004" transform="translate(-148.987881 -7.543)"/><path d="m252.457 22.232c-.001-.025-.002-.051-.002-.076 0-.891.733-1.624 1.624-1.624h.036c.433-.004.85.161 1.162.461.36.322.567.784.567 1.267 0 .933-.768 1.7-1.7 1.7-.933 0-1.7-.767-1.7-1.7 0-.01 0-.021 0-.031m-.7 2.391c.628.622 1.478.972 2.362.972 1.841 0 3.356-1.515 3.356-3.356s-1.515-3.356-3.356-3.356c-1.36 0-2.591.826-3.106 2.085-.514 1.255-.218 2.704.747 3.657" transform="translate(-153.585881 -11.58)"/><path d="m272.537 21.983c0-.969.488-1.527 1.345-1.527.317-.015.627.099.86.314.235.252.357.59.337.934v3.696h1.693v-3.878c.036-.736-.23-1.456-.736-1.992-.45-.432-1.055-.665-1.678-.647-.695-.043-1.37.245-1.821.775v-.6h-1.7v6.342h1.7z" transform="translate(-165.893881 -11.579)"/><path d="m290.323 22.232c-.002-.031-.003-.063-.003-.094 0-.903.744-1.647 1.647-1.647.019 0 .037 0 .056.001.445-.008.877.159 1.2.465.327.336.505.79.492 1.259.002.033.003.065.003.098 0 .903-.744 1.647-1.647 1.647-.016 0-.033-.001-.049-.001-.443.009-.871-.157-1.193-.461-.334-.336-.518-.793-.508-1.267m3.394-2.5c-.509-.571-1.247-.884-2.011-.852-1.706.054-3.081 1.472-3.081 3.179 0 .054.001.108.004.161-.015.932.35 1.831 1.011 2.488.552.552 1.3.864 2.081.868.761.036 1.5-.271 2.011-.837v.659h1.7v-6.347h-1.7z" transform="translate(-176.789881 -11.576)"/><path d="m309.665 12.669-.015.008.043 8.354v.043h1.693v-9.254z" transform="translate(-189.664881 -7.255)"/><path d="m139.21 14.535h1.523c.319-.004.628.117.86.337.251.25.391.591.387.945.001.017.001.035.001.052 0 .685-.563 1.248-1.248 1.248h-1.501zm0 4.262h1.523.039c1.637 0 2.984-1.347 2.984-2.984 0-.794-.317-1.556-.88-2.116-.577-.561-1.353-.872-2.158-.864h-3.318v8.862h1.81z" transform="translate(-84.159881 -7.874)"/><path d="m155.94 25.467h1.7v-3.027c-.001-.024-.002-.047-.002-.071 0-.834.687-1.52 1.52-1.52.118 0 .235.014.35.041h.035v-1.89h-.047c-.77-.041-1.496.372-1.856 1.054v-.926h-1.7z" transform="translate(-95.515881 -11.649)"/><path d="m167.677 22.232c-.001-.025-.002-.051-.002-.076 0-.891.733-1.624 1.624-1.624h.036c.435-.003.853.165 1.165.468.36.322.567.784.567 1.267 0 .933-.768 1.7-1.7 1.7-.933 0-1.7-.767-1.7-1.7 0-.01 0-.021 0-.031m-.7 2.391c.628.621 1.476.969 2.359.969 1.841 0 3.356-1.515 3.356-3.356s-1.515-3.356-3.356-3.356c-1.36 0-2.591.827-3.106 2.086-.514 1.255-.218 2.704.747 3.657" transform="translate(-101.656881 -11.58)"/><path d="m186.89 16.707h1.329v-1.632h-1.329c0-.775.411-1.1 1.294-1.035h.035v-1.646h-.047c-1.937-.12-2.98.821-2.98 2.654v.031h-.9v1.631h.9v4.708h1.7z" transform="translate(-112.879881 -7.601)"/><path d="m197.464 21.622c.173-.73.852-1.234 1.6-1.19.722-.028 1.363.48 1.5 1.19zm-.8 3.022c.678.642 1.586.985 2.519.953 1.091.051 2.136-.462 2.763-1.356v-.035l-1.376-.775v.023c-.34.406-.85.632-1.379.612-.756.088-1.476-.375-1.709-1.1h4.708v-.023c.044-.222.066-.448.066-.674.015-.921-.343-1.811-.992-2.464-.597-.577-1.398-.896-2.228-.887-.037-.001-.073-.002-.11-.002-1.773 0-3.232 1.459-3.232 3.232 0 .037.001.073.002.11-.017.897.33 1.763.961 2.4" transform="translate(-119.865881 -11.601)"/><path d="m216.025 22.916c.593.17 1.066.3 1.066.628s-.306.508-.833.508c-.524.04-1.013-.279-1.186-.775l-.019-.054-1.472.829v.027c.498 1.004 1.561 1.609 2.678 1.523 1.162 0 2.55-.535 2.55-2.038 0-1.445-1.263-1.79-2.185-2.046-.589-.159-1.05-.287-1.05-.612s.275-.484.7-.484c.414-.013.795.229.961.608l.019.047 1.418-.775h.027v-.032c-.493-.864-1.428-1.385-2.422-1.352-.09-.012-.181-.017-.273-.017-1.137 0-2.086.904-2.141 2.04 0 1.376 1.255 1.732 2.17 1.992" transform="translate(-130.820881 -11.602)"/><path d="m138.853 79.572h-2.3l1.162-3.425zm-2.263-5.572-3.1 8.854h1.937l.527-1.581h3.446l.527 1.581h1.961l-3.105-8.854z" transform="translate(-81.764881 -45.342)"/><path d="m158.758 82.613c-.585-.163-1.046-.287-1.046-.612s.271-.484.694-.484c.415-.012.797.231.961.612l.019.043 1.414-.772h.027v-.035c-.497-.869-1.436-1.395-2.437-1.365-.09-.011-.18-.017-.271-.017-1.137 0-2.087.904-2.143 2.04 0 1.379 1.255 1.736 2.17 2 .6.171 1.066.3 1.066.628s-.3.508-.833.508c-.524.04-1.013-.279-1.186-.775v-.05l-1.472.825v.031c.502.999 1.564 1.598 2.679 1.51 1.162 0 2.55-.531 2.55-2.034s-1.263-1.794-2.185-2.046" transform="translate(-95.380881 -49.014)"/><path d="m172.43 80c-.089-.011-.179-.017-.269-.017-1.137 0-2.088.904-2.145 2.04 0 1.379 1.255 1.736 2.17 2 .6.167 1.066.3 1.066.628s-.3.508-.833.508c-.524.04-1.013-.279-1.186-.775v-.054l-1.472.829v.031c.496 1.003 1.558 1.606 2.674 1.519 1.162 0 2.55-.535 2.55-2.038 0-1.445-1.263-1.79-2.185-2.042-.585-.163-1.046-.287-1.046-.612s.271-.484.694-.484c.415-.012.797.231.961.612l.023.043 1.414-.775h.027v-.043c-.497-.873-1.439-1.402-2.443-1.37" transform="translate(-103.980881 -49.015)"/><path d="m188 85.037c-.432.007-.85-.158-1.162-.457-.325-.324-.505-.765-.5-1.224-.001-.024-.002-.049-.002-.073 0-.893.735-1.627 1.627-1.627h.037c.432-.003.849.163 1.162.461.319.326.494.768.484 1.224.001.023.001.046.001.069 0 .895-.736 1.631-1.631 1.631-.007 0-.014 0-.021 0m.005-5.041c-1.822.016-3.312 1.52-3.312 3.342 0 1.833 1.508 3.342 3.342 3.342 1.833 0 3.342-1.509 3.342-3.342 0-.895-.36-1.753-.997-2.381-.633-.621-1.488-.967-2.375-.961" transform="translate(-113.106881 -49.017)"/><path d="m208.621 84.2c-.273.521-.826.838-1.414.81-.431.01-.85-.152-1.162-.45-.317-.321-.491-.758-.481-1.209-.001-.025-.002-.05-.002-.075 0-.884.728-1.612 1.612-1.612.014 0 .027.001.041.001.578-.018 1.119.297 1.387.81v.047l1.457-.852-.019-.031c-.568-1.02-1.653-1.651-2.821-1.639-.005 0-.01 0-.016 0-1.836 0-3.348 1.511-3.348 3.348s1.512 3.348 3.348 3.348c1.189 0 2.291-.633 2.891-1.659h.031l-1.48-.845z" transform="translate(-124.877881 -49.015)"/><path d="m221.93 86.726v.047h1.693v-6.363l-1.689.558z" transform="translate(-135.934881 -49.268)"/><path d="m223.207 72.692c-.196-.191-.458-.299-.732-.3-.568 0-1.035.467-1.035 1.035s.467 1.035 1.035 1.035c.564 0 1.029-.46 1.035-1.024-.002-.28-.117-.549-.318-.744" transform="translate(-135.634881 -44.355)"/><path d="m234.155 83.337c.002.03.002.06.002.09 0 .906-.745 1.651-1.651 1.651-.02 0-.04 0-.06-.001-.442.008-.871-.159-1.19-.465-.331-.334-.512-.789-.5-1.259-.002-.031-.003-.063-.003-.094 0-.901.742-1.643 1.643-1.643.02 0 .04 0 .06.001.447-.01.88.158 1.205.465.324.336.5.788.488 1.255m0-2.488c-.511-.569-1.249-.88-2.013-.849-1.707.055-3.081 1.475-3.081 3.182 0 .053.001.105.004.158-.008.927.359 1.82 1.019 2.472.551.553 1.3.865 2.081.868.758.03 1.492-.278 2-.841v.661h1.7v-6.329h-1.7z" transform="translate(-140.301881 -49.013)"/><path d="m251.6 79.282h1.418v-1.631h-1.418v-1.771l-1.7.52v1.255h-1.09v1.631h1.09v2.565c-.068.63.14 1.259.57 1.724.477.36 1.071.53 1.666.477.284-.001.567-.018.849-.05h.027v-1.55h-.05c-.589.031-1.019.039-1.221-.151-.11-.121-.164-.283-.147-.446z" transform="translate(-152.399881 -46.493)"/><path d="m263.6 72.692c-.196-.191-.458-.299-.732-.3-.573.002-1.044.474-1.044 1.047 0 .574.473 1.047 1.047 1.047.566 0 1.035-.459 1.047-1.025-.003-.282-.117-.551-.318-.748" transform="translate(-160.369881 -44.355)"/><path d="m262.37 86.726v.047h1.693v-6.363l-1.689.558z" transform="translate(-160.705881 -49.268)"/><path d="m274.535 83.34v.018c0 .922-.759 1.682-1.682 1.682-.427 0-.839-.163-1.151-.456-.321-.327-.498-.77-.488-1.228-.001-.024-.002-.049-.002-.073 0-.893.735-1.627 1.627-1.627h.037c.432-.003.85.162 1.162.461.32.326.496.767.488 1.224m-1.665-3.341c-1.818.018-3.304 1.518-3.304 3.336 0 1.83 1.506 3.336 3.336 3.336s3.336-1.506 3.336-3.336c0-.892-.358-1.748-.993-2.375-.633-.621-1.488-.967-2.375-.961" transform="translate(-165.084881 -49.017)"/><path d="m293.094 79.993c-.695-.043-1.37.244-1.821.775v-.6h-1.693v6.347h1.713v-3.422c0-.969.492-1.523 1.348-1.523.316-.013.625.099.86.31.232.255.352.593.333.938v3.693h1.7v-3.875c.034-.741-.238-1.465-.752-2-.452-.434-1.06-.667-1.686-.647" transform="translate(-177.371881 -49.01)"/><path d="m139.21 47.155v-2h3.511v-1.735h-5.321v8.854h1.81v-3.387h3.41v-1.732z" transform="translate(-84.159881 -26.611)"/><path d="m158.162 52.78v.018c0 .922-.759 1.682-1.682 1.682-.427 0-.839-.163-1.151-.456-.321-.327-.497-.77-.488-1.228-.001-.024-.002-.049-.002-.073 0-.893.735-1.627 1.627-1.627h.037c.433-.005.85.161 1.162.461.323.324.499.767.488 1.224m-1.674-3.34c-.012 0-.023 0-.035 0-1.813 0-3.305 1.492-3.305 3.305v.035.025c0 1.846 1.519 3.365 3.365 3.365s3.365-1.519 3.365-3.365-1.519-3.365-3.365-3.365c-.008 0-.017 0-.025 0" transform="translate(-93.799881 -30.298)"/><path d="m174.073 52.8c-.001-.024-.002-.049-.002-.073 0-.893.735-1.627 1.627-1.627h.022c.433-.005.85.161 1.162.461.372.323.586.792.586 1.284 0 .933-.767 1.7-1.7 1.7-.932 0-1.7-.767-1.7-1.7 0-.014.001-.029.001-.044m1.651-3.356c-.012 0-.023 0-.035 0-1.813 0-3.305 1.492-3.305 3.305v.035.025c0 1.846 1.519 3.365 3.365 3.365s3.365-1.519 3.365-3.365-1.519-3.365-3.365-3.365c-.008 0-.017 0-.025 0" transform="translate(-105.584881 -30.298)"/><path d="m194.85 51.016c-.589.035-1.023.043-1.224-.147-.108-.122-.16-.284-.143-.446v-2.577h1.417v-1.631h-1.414v-2.325l-1.693.515v1.806h-1.093v1.635h1.089v2.561c-.07.632.139 1.263.573 1.728.477.36 1.071.53 1.666.477.256 0 .535-.019.845-.05h.027v-1.55z" transform="translate(-116.806881 -26.899)"/><path d="m205.906 49.072c-.002-.031-.003-.062-.003-.094 0-.903.744-1.647 1.647-1.647.014 0 .028.001.042.001.447-.009.88.158 1.205.465.326.336.504.79.492 1.259.001.029.002.057.002.086 0 .906-.745 1.651-1.651 1.651-.017 0-.034 0-.051-.001-.442.009-.87-.157-1.19-.461-.326-.336-.504-.79-.492-1.259m0-5.712-1.74.725.043 8.106v.046h1.693v-.678c.502.574 1.239.888 2 .852 1.718-.052 3.103-1.48 3.103-3.199 0-.047-.001-.094-.003-.141.015-.93-.347-1.828-1.003-2.487-.558-.554-1.313-.866-2.1-.868-.754-.036-1.484.272-1.984.837v-3.193z" transform="translate(-125.056881 -26.574)"/><path d="m225.383 52.793c-.002-.031-.003-.063-.003-.094 0-.903.744-1.647 1.647-1.647.019 0 .037 0 .056.001.447-.01.88.158 1.205.465.326.336.504.79.492 1.259.002.03.002.06.002.09 0 .904-.743 1.647-1.647 1.647-.022 0-.045 0-.068-.001-.442.009-.87-.157-1.19-.461-.326-.336-.504-.79-.492-1.259m5.092 3.166v-6.348h-1.7v.678c-.51-.569-1.248-.882-2.011-.852-1.706.053-3.081 1.47-3.081 3.177 0 .055.001.109.004.163-.014.931.349 1.829 1.007 2.488.554.552 1.303.864 2.085.868.758.03 1.492-.278 2-.841v.666z" transform="translate(-137.012881 -30.295)"/><path d="m244.769 43.076-.019.008.012 8.56h1.693v-9.254z" transform="translate(-149.912881 -25.98)"/><path d="m254.445 51.644v-9.254l-1.686.686-.019.008.012 8.56z" transform="translate(-154.806881 -25.98)"/><path d="m261.672 52.157c.173-.73.852-1.234 1.6-1.19.722-.028 1.363.48 1.5 1.19zm4.739 1.306c.043-.221.065-.445.066-.67.017-.923-.342-1.814-.992-2.468-.597-.577-1.398-.896-2.228-.887-.037-.001-.073-.002-.11-.002-1.773 0-3.232 1.459-3.232 3.232 0 .037.001.073.002.11-.017.896.328 1.762.957 2.4.68.641 1.589.984 2.523.953 1.09.05 2.133-.462 2.759-1.356l.023-.031-1.376-.775v.023c-.341.406-.85.633-1.379.616-.758.09-1.48-.373-1.713-1.1h4.712z" transform="translate(-159.201881 -30.295)"/><path d="m283.125 51.444h.035v-1.879h-.046c-.77-.043-1.499.368-1.86 1.05v-.926h-1.694v6.347h1.693v-3.03c-.001-.022-.001-.044-.001-.067 0-.836.688-1.524 1.524-1.524.117 0 .234.014.349.041" transform="translate(-171.234881 -30.373)"/><path d="m292.146 49.44c-.089-.011-.178-.017-.268-.017-1.137 0-2.086.904-2.142 2.04 0 1.376 1.252 1.732 2.166 2 .6.167 1.066.3 1.066.624s-.3.511-.833.511c-.522.038-1.009-.281-1.182-.775v-.054l-1.472.829v.031c.496 1.003 1.558 1.606 2.674 1.519 1.162 0 2.554-.535 2.554-2.038s-1.267-1.79-2.189-2.042c-.585-.163-1.046-.291-1.046-.616s.271-.48.694-.48c.414-.013.795.229.961.608l.023.047 1.414-.775h.027v-.035c-.498-.861-1.432-1.381-2.426-1.352" transform="translate(-177.310881 -30.298)"/><path d="m306.065 46.561h-.705v-.868c.294 0 .775.058.775-.387v-.329h-.775v-1.667h1.7v2.058c.005.632-.321 1.193-.995 1.193z" transform="translate(-187.037881 -26.544)"/><path d="m56.537 3.332.043.031 8.8 6.227c-.149-.083-.306-.15-.469-.2-1.394-.403-2.876-.39-4.262.039l-3.79 1.236-.159.035c-.015.006-.025.019-.027.035.001.015.01.028.023.035s6.889 5.006 7.61 5.526c1.7 1.234 3.896 1.574 5.89.914l2.325-.775.415-.136c.651-.217 1.085-.387 1.089-.387.017.001.032-.01.035-.027.009-.014.009-.032 0-.046l-.151-.112s-.283-.225-.7-.535l-.232-.136-5.812-4.216s-.085-.074-.205-.167c.387-.132 5.607-1.883 6.816-2.325.062-.023.132-.043.194-.07.015-.005.026-.019.027-.035 0-.014-.01-.026-.023-.031l-.043-.031c-.023 0-6.653-4.727-7.653-5.425-1.134-.793-2.495-1.198-3.878-1.156-.685.015-1.363.136-2.011.36l-2.526.856-1.015.345-.112.039c-.066.023-.132.043-.2.07-.014.007-.024.02-.027.035s.02.019.028.027z" transform="translate(-34.612881 -.991)"/><path d="m11.288 14.706v.329c.003.015.013.028.027.035.012.005.027.005.039 0l.043-.031 8.68-6.413c-.124.117-.235.247-.333.387-.827 1.198-1.281 2.614-1.306 4.069 0 1.027-.031 3.968-.031 3.968v.17c0 .016.009.031.023.039.012.006.027.006.039 0l7.637-5.5c1.701-1.228 2.711-3.202 2.712-5.3v-4.102c-.014-.007-.032-.007-.046 0l-.155.1s-.3.2-.725.5l-.236.163c-1.573 1.162-5.464 3.948-5.836 4.212l-.22.148c0-.426-.027-5.917-.046-7.2v-.201c-.001-.017-.013-.033-.029-.039h-.039l-.043.031c-.023 0-6.587 4.832-7.552 5.56-1.68 1.25-2.658 3.238-2.623 5.332v2.662c.016.368.016.736.02 1.081z" transform="translate(-6.901881 -.04)"/><path d="m42.883 43.658c-.222-.653-.548-1.267-.965-1.817-.531-.709-1.058-1.426-1.589-2.139l-.639-.86-.074-.1-.124-.163c-.013-.007-.03-.007-.043 0-.001.014-.01.026-.023.031-.023.012 0 .035 0 .05s-2.151 6.928-3.2 10.3c.033-.167.048-.338.043-.508-.045-1.454-.517-2.864-1.357-4.052-.6-.833-2.325-3.22-2.325-3.22l-.1-.139c-.012-.008-.027-.008-.039 0s-.019 0-.023.031-2.639 8.1-2.91 8.951c-.649 2-.297 4.194.945 5.89l1.44 1.987c.089.128.174.244.26.356.387.554.686.918.69.922h-.05l-10.78.085c.17-.02.338-.059.5-.116 1.375-.484 2.576-1.367 3.449-2.534l2.325-3.2c.031-.043.1-.136.1-.139.01-.013.01-.03 0-.043h-.035c-.012 0-8.525-.046-9.4-.046-1.259-.011-2.495.348-3.553 1.031-.68.437-1.273.995-1.751 1.647l-1.453 1.984-.26.356c-.387.558-.663.934-.666.938s0 0 0 .031v-.023c.001-.017.001-.033 0-.05s-2.341-6.854-3.503-10.199c.071.154.159.3.263.434.893 1.15 2.106 2.012 3.487 2.476l3.777 1.229.163.05c.014.003.029-.002.039-.012.006-.012.006-.027 0-.039s-2.65-8.1-2.929-8.943c-.653-1.997-2.231-3.561-4.234-4.195-.775-.256-1.55-.5-2.325-.775l-.414-.125c-.655-.205-1.093-.337-1.1-.337h-.048c-.009.014-.009.033 0 .047l.058.178s.1.353.256.845c.027.085.054.174.085.267.573 1.844 2.065 6.409 2.209 6.843l.066.256c-.387-.132-5.642-1.767-6.87-2.135l-.2-.058c-.013-.008-.03-.008-.043 0-.008.009-.013.022-.013.034v.05c0 .019 2.612 7.75 3.011 8.881.447 1.311 1.305 2.443 2.445 3.229.564.389 1.185.688 1.841.887l2.542.775 1.027.318.112.035.2.058c.013.008.03.008.043 0 .007.016.022.026.039.027h.19s.36 0 .88.023h.283l7.219.054h.26c-.248.345-3.452 4.8-4.185 5.851-.043.054-.084.111-.12.17-.01.013-.01.03 0 .043h.1c.031 0 8.16-.046 9.377-.062 1.385-.012 2.731-.469 3.836-1.305.547-.412 1.027-.906 1.422-1.465.517-.726 1.033-1.448 1.55-2.166l.624-.872.07-.1c.039-.054.081-.112.116-.17.009-.01.009-.025 0-.035.017-.003.032-.015.039-.031s.043-.116.062-.178c0 0 .124-.341.291-.833l.089-.267c.6-1.848 2.077-6.409 2.22-6.843l.093-.244c.252.341 3.522 4.758 4.3 5.777l.124.167c.013.007.03.007.043 0l.023-.035.019-.047c0-.031 2.441-7.8 2.8-8.963.395-1.314.36-2.721-.1-4.014z" transform="translate(.000119 -23.644)"/></g></svg>